<svg width="1920" height="100" viewBox="0 0 1920 100" fill="none" xmlns="http://www.w3.org/2000/svg">
    <rect width="1920" height="100" fill="#121212" />
    <path
        d="M572.752 47.5723V49.8574H565.33V47.5723H572.752ZM566.199 41.7812V56H563.27V41.7812H566.199ZM574.842 41.7812V56H571.922V41.7812H574.842ZM576.766 50.8242V50.6191C576.766 49.8444 576.876 49.1315 577.098 48.4805C577.319 47.8229 577.641 47.2533 578.064 46.7715C578.488 46.2897 579.008 45.9154 579.627 45.6484C580.245 45.375 580.955 45.2383 581.756 45.2383C582.557 45.2383 583.27 45.375 583.895 45.6484C584.52 45.9154 585.044 46.2897 585.467 46.7715C585.896 47.2533 586.222 47.8229 586.443 48.4805C586.665 49.1315 586.775 49.8444 586.775 50.6191V50.8242C586.775 51.5924 586.665 52.3053 586.443 52.9629C586.222 53.6139 585.896 54.1836 585.467 54.6719C585.044 55.1536 584.523 55.528 583.904 55.7949C583.286 56.0618 582.576 56.1953 581.775 56.1953C580.975 56.1953 580.262 56.0618 579.637 55.7949C579.018 55.528 578.494 55.1536 578.064 54.6719C577.641 54.1836 577.319 53.6139 577.098 52.9629C576.876 52.3053 576.766 51.5924 576.766 50.8242ZM579.578 50.6191V50.8242C579.578 51.2669 579.617 51.6803 579.695 52.0645C579.773 52.4486 579.897 52.7871 580.066 53.0801C580.242 53.3665 580.47 53.5911 580.75 53.7539C581.03 53.9167 581.372 53.998 581.775 53.998C582.166 53.998 582.501 53.9167 582.781 53.7539C583.061 53.5911 583.286 53.3665 583.455 53.0801C583.624 52.7871 583.748 52.4486 583.826 52.0645C583.911 51.6803 583.953 51.2669 583.953 50.8242V50.6191C583.953 50.1895 583.911 49.7858 583.826 49.4082C583.748 49.0241 583.621 48.6855 583.445 48.3926C583.276 48.0931 583.051 47.8587 582.771 47.6895C582.492 47.5202 582.153 47.4355 581.756 47.4355C581.359 47.4355 581.02 47.5202 580.74 47.6895C580.467 47.8587 580.242 48.0931 580.066 48.3926C579.897 48.6855 579.773 49.0241 579.695 49.4082C579.617 49.7858 579.578 50.1895 579.578 50.6191ZM591.316 47.6211V56H588.494V45.4336H591.141L591.316 47.6211ZM590.926 50.3457H590.145C590.145 49.61 590.232 48.9329 590.408 48.3145C590.59 47.6895 590.854 47.1491 591.199 46.6934C591.551 46.2311 591.984 45.873 592.498 45.6191C593.012 45.3652 593.608 45.2383 594.285 45.2383C594.754 45.2383 595.184 45.3099 595.574 45.4531C595.965 45.5898 596.3 45.8079 596.58 46.1074C596.867 46.4004 597.088 46.7845 597.244 47.2598C597.4 47.7285 597.479 48.2917 597.479 48.9492V56H594.666V49.2617C594.666 48.7799 594.601 48.4089 594.471 48.1484C594.34 47.888 594.155 47.7057 593.914 47.6016C593.68 47.4974 593.396 47.4453 593.064 47.4453C592.7 47.4453 592.381 47.5202 592.107 47.6699C591.84 47.8197 591.619 48.028 591.443 48.2949C591.268 48.5553 591.137 48.8613 591.053 49.2129C590.968 49.5645 590.926 49.9421 590.926 50.3457ZM597.215 50.0234L596.209 50.1504C596.209 49.4603 596.294 48.819 596.463 48.2266C596.639 47.6341 596.896 47.1133 597.234 46.6641C597.579 46.2148 598.006 45.8665 598.514 45.6191C599.021 45.3652 599.607 45.2383 600.271 45.2383C600.779 45.2383 601.242 45.3132 601.658 45.4629C602.075 45.6061 602.43 45.8372 602.723 46.1562C603.022 46.4688 603.25 46.8789 603.406 47.3867C603.569 47.8945 603.65 48.5163 603.65 49.252V56H600.828V49.252C600.828 48.7637 600.763 48.3926 600.633 48.1387C600.509 47.8783 600.327 47.6992 600.086 47.6016C599.852 47.4974 599.572 47.4453 599.246 47.4453C598.908 47.4453 598.611 47.5137 598.357 47.6504C598.104 47.7806 597.892 47.9629 597.723 48.1973C597.553 48.4316 597.426 48.7051 597.342 49.0176C597.257 49.3236 597.215 49.6589 597.215 50.0234ZM610.691 56.1953C609.871 56.1953 609.135 56.0651 608.484 55.8047C607.833 55.5378 607.28 55.1699 606.824 54.7012C606.375 54.2324 606.03 53.6888 605.789 53.0703C605.548 52.4453 605.428 51.7812 605.428 51.0781V50.6875C605.428 49.8867 605.542 49.1543 605.77 48.4902C605.997 47.8262 606.323 47.25 606.746 46.7617C607.176 46.2734 607.697 45.8991 608.309 45.6387C608.921 45.3717 609.611 45.2383 610.379 45.2383C611.128 45.2383 611.792 45.362 612.371 45.6094C612.951 45.8568 613.436 46.2083 613.826 46.6641C614.223 47.1198 614.523 47.6667 614.725 48.3047C614.926 48.9362 615.027 49.6393 615.027 50.4141V51.5859H606.629V49.7109H612.264V49.4961C612.264 49.1055 612.192 48.7572 612.049 48.4512C611.912 48.1387 611.704 47.8913 611.424 47.709C611.144 47.5267 610.786 47.4355 610.35 47.4355C609.979 47.4355 609.66 47.5169 609.393 47.6797C609.126 47.8424 608.908 48.0703 608.738 48.3633C608.576 48.6562 608.452 49.0013 608.367 49.3984C608.289 49.7891 608.25 50.2188 608.25 50.6875V51.0781C608.25 51.5013 608.309 51.8919 608.426 52.25C608.549 52.6081 608.722 52.9173 608.943 53.1777C609.171 53.4382 609.445 53.64 609.764 53.7832C610.089 53.9264 610.457 53.998 610.867 53.998C611.375 53.998 611.847 53.9004 612.283 53.7051C612.726 53.5033 613.107 53.2005 613.426 52.7969L614.793 54.2812C614.572 54.6003 614.269 54.9062 613.885 55.1992C613.507 55.4922 613.051 55.7331 612.518 55.9219C611.984 56.1042 611.375 56.1953 610.691 56.1953Z"
        fill="url(#paint0_linear_2_2326)" />
    <path
        d="M688.914 43.041L684.207 56H682.283L687.703 41.7812H688.943L688.914 43.041ZM692.859 56L688.143 43.041L688.113 41.7812H689.354L694.793 56H692.859ZM692.615 50.7363V52.2793H684.627V50.7363H692.615ZM696.414 41H698.23V53.9492L698.074 56H696.414V41ZM705.369 50.6289V50.834C705.369 51.6022 705.278 52.3151 705.096 52.9727C704.913 53.6237 704.646 54.1901 704.295 54.6719C703.943 55.1536 703.514 55.528 703.006 55.7949C702.498 56.0618 701.915 56.1953 701.258 56.1953C700.587 56.1953 699.998 56.0814 699.49 55.8535C698.989 55.6191 698.566 55.2839 698.221 54.8477C697.876 54.4115 697.599 53.8841 697.391 53.2656C697.189 52.6471 697.049 51.9505 696.971 51.1758V50.2773C697.049 49.4961 697.189 48.7962 697.391 48.1777C697.599 47.5592 697.876 47.0319 698.221 46.5957C698.566 46.153 698.989 45.8177 699.49 45.5898C699.992 45.3555 700.574 45.2383 701.238 45.2383C701.902 45.2383 702.492 45.3685 703.006 45.6289C703.52 45.8828 703.95 46.2474 704.295 46.7227C704.646 47.1979 704.913 47.7676 705.096 48.4316C705.278 49.0892 705.369 49.8216 705.369 50.6289ZM703.553 50.834V50.6289C703.553 50.1016 703.504 49.6068 703.406 49.1445C703.309 48.6758 703.152 48.2656 702.938 47.9141C702.723 47.556 702.439 47.276 702.088 47.0742C701.736 46.8659 701.303 46.7617 700.789 46.7617C700.333 46.7617 699.936 46.8398 699.598 46.9961C699.266 47.1523 698.982 47.3639 698.748 47.6309C698.514 47.8913 698.322 48.1908 698.172 48.5293C698.029 48.8613 697.921 49.2064 697.85 49.5645V51.918C697.954 52.3737 698.123 52.8132 698.357 53.2363C698.598 53.653 698.917 53.9948 699.314 54.2617C699.718 54.5286 700.216 54.6621 700.809 54.6621C701.297 54.6621 701.714 54.5645 702.059 54.3691C702.41 54.1673 702.693 53.8906 702.908 53.5391C703.13 53.1875 703.292 52.7806 703.396 52.3184C703.501 51.8561 703.553 51.3613 703.553 50.834ZM707.176 50.834V50.6094C707.176 49.8477 707.286 49.1413 707.508 48.4902C707.729 47.8327 708.048 47.263 708.465 46.7812C708.882 46.293 709.386 45.9154 709.979 45.6484C710.571 45.375 711.235 45.2383 711.971 45.2383C712.713 45.2383 713.38 45.375 713.973 45.6484C714.572 45.9154 715.079 46.293 715.496 46.7812C715.919 47.263 716.242 47.8327 716.463 48.4902C716.684 49.1413 716.795 49.8477 716.795 50.6094V50.834C716.795 51.5957 716.684 52.3021 716.463 52.9531C716.242 53.6042 715.919 54.1738 715.496 54.6621C715.079 55.1439 714.575 55.5215 713.982 55.7949C713.396 56.0618 712.732 56.1953 711.99 56.1953C711.248 56.1953 710.581 56.0618 709.988 55.7949C709.396 55.5215 708.888 55.1439 708.465 54.6621C708.048 54.1738 707.729 53.6042 707.508 52.9531C707.286 52.3021 707.176 51.5957 707.176 50.834ZM708.982 50.6094V50.834C708.982 51.3613 709.044 51.8594 709.168 52.3281C709.292 52.7904 709.477 53.2005 709.725 53.5586C709.979 53.9167 710.294 54.1999 710.672 54.4082C711.049 54.61 711.489 54.7109 711.99 54.7109C712.485 54.7109 712.918 54.61 713.289 54.4082C713.667 54.1999 713.979 53.9167 714.227 53.5586C714.474 53.2005 714.66 52.7904 714.783 52.3281C714.913 51.8594 714.979 51.3613 714.979 50.834V50.6094C714.979 50.0885 714.913 49.597 714.783 49.1348C714.66 48.666 714.471 48.2526 714.217 47.8945C713.969 47.5299 713.657 47.2435 713.279 47.0352C712.908 46.8268 712.472 46.7227 711.971 46.7227C711.476 46.7227 711.04 46.8268 710.662 47.0352C710.291 47.2435 709.979 47.5299 709.725 47.8945C709.477 48.2526 709.292 48.666 709.168 49.1348C709.044 49.597 708.982 50.0885 708.982 50.6094ZM725.525 53.5586V45.4336H727.342V56H725.613L725.525 53.5586ZM725.867 51.332L726.619 51.3125C726.619 52.0156 726.544 52.6667 726.395 53.2656C726.251 53.8581 726.017 54.3724 725.691 54.8086C725.366 55.2448 724.939 55.5866 724.412 55.834C723.885 56.0749 723.243 56.1953 722.488 56.1953C721.974 56.1953 721.502 56.1204 721.072 55.9707C720.649 55.821 720.285 55.5898 719.979 55.2773C719.673 54.9648 719.435 54.5579 719.266 54.0566C719.103 53.5553 719.021 52.9531 719.021 52.25V45.4336H720.828V52.2695C720.828 52.7448 720.88 53.1387 720.984 53.4512C721.095 53.7572 721.242 54.0013 721.424 54.1836C721.613 54.3594 721.821 54.4831 722.049 54.5547C722.283 54.6263 722.524 54.6621 722.771 54.6621C723.54 54.6621 724.148 54.5156 724.598 54.2227C725.047 53.9232 725.369 53.5228 725.564 53.0215C725.766 52.5137 725.867 51.9505 725.867 51.332ZM734.52 45.4336V46.8203H728.807V45.4336H734.52ZM730.74 42.8652H732.547V53.3828C732.547 53.7409 732.602 54.0111 732.713 54.1934C732.824 54.3757 732.967 54.4961 733.143 54.5547C733.318 54.6133 733.507 54.6426 733.709 54.6426C733.859 54.6426 734.015 54.6296 734.178 54.6035C734.347 54.571 734.474 54.5449 734.559 54.5254L734.568 56C734.425 56.0456 734.236 56.0879 734.002 56.127C733.774 56.1725 733.497 56.1953 733.172 56.1953C732.729 56.1953 732.322 56.1074 731.951 55.9316C731.58 55.7559 731.284 55.4629 731.062 55.0527C730.848 54.6361 730.74 54.0762 730.74 53.373V42.8652ZM750.008 41.7812H751.883V51.4004C751.883 52.4681 751.645 53.3568 751.17 54.0664C750.695 54.776 750.063 55.3099 749.275 55.668C748.494 56.0195 747.645 56.1953 746.727 56.1953C745.763 56.1953 744.891 56.0195 744.109 55.668C743.335 55.3099 742.719 54.776 742.264 54.0664C741.814 53.3568 741.59 52.4681 741.59 51.4004V41.7812H743.455V51.4004C743.455 52.1426 743.592 52.7546 743.865 53.2363C744.139 53.7181 744.52 54.0762 745.008 54.3105C745.503 54.5449 746.076 54.6621 746.727 54.6621C747.384 54.6621 747.957 54.5449 748.445 54.3105C748.94 54.0762 749.324 53.7181 749.598 53.2363C749.871 52.7546 750.008 52.1426 750.008 51.4004V41.7812ZM760.721 53.1973C760.721 52.9368 760.662 52.696 760.545 52.4746C760.434 52.2467 760.203 52.0417 759.852 51.8594C759.507 51.6706 758.986 51.5078 758.289 51.3711C757.703 51.2474 757.173 51.1009 756.697 50.9316C756.229 50.7624 755.828 50.5573 755.496 50.3164C755.171 50.0755 754.92 49.7923 754.744 49.4668C754.568 49.1413 754.48 48.7604 754.48 48.3242C754.48 47.9076 754.572 47.5137 754.754 47.1426C754.943 46.7715 755.206 46.4427 755.545 46.1562C755.89 45.8698 756.303 45.6452 756.785 45.4824C757.267 45.3197 757.804 45.2383 758.396 45.2383C759.243 45.2383 759.965 45.388 760.564 45.6875C761.163 45.987 761.622 46.3874 761.941 46.8887C762.26 47.3835 762.42 47.9336 762.42 48.5391H760.613C760.613 48.2461 760.525 47.9629 760.35 47.6895C760.18 47.4095 759.93 47.1784 759.598 46.9961C759.272 46.8138 758.872 46.7227 758.396 46.7227C757.895 46.7227 757.488 46.8008 757.176 46.957C756.87 47.1068 756.645 47.2988 756.502 47.5332C756.365 47.7676 756.297 48.015 756.297 48.2754C756.297 48.4707 756.329 48.6465 756.395 48.8027C756.466 48.9525 756.59 49.0924 756.766 49.2227C756.941 49.3464 757.189 49.4635 757.508 49.5742C757.827 49.6849 758.234 49.7956 758.729 49.9062C759.594 50.1016 760.307 50.3359 760.867 50.6094C761.427 50.8828 761.844 51.2181 762.117 51.6152C762.391 52.0124 762.527 52.4941 762.527 53.0605C762.527 53.5228 762.43 53.946 762.234 54.3301C762.046 54.7142 761.769 55.0462 761.404 55.3262C761.046 55.5996 760.617 55.8145 760.115 55.9707C759.62 56.1204 759.064 56.1953 758.445 56.1953C757.514 56.1953 756.727 56.0293 756.082 55.6973C755.438 55.3652 754.949 54.9355 754.617 54.4082C754.285 53.8809 754.119 53.3242 754.119 52.7383H755.936C755.962 53.2331 756.105 53.627 756.365 53.9199C756.626 54.2064 756.945 54.4115 757.322 54.5352C757.7 54.6523 758.074 54.7109 758.445 54.7109C758.94 54.7109 759.354 54.6458 759.686 54.5156C760.024 54.3854 760.281 54.2064 760.457 53.9785C760.633 53.7507 760.721 53.4902 760.721 53.1973Z"
        fill="white" />
    <path
        d="M842.598 48.4414V49.3398C842.598 50.4076 842.464 51.3646 842.197 52.2109C841.93 53.0573 841.546 53.7767 841.045 54.3691C840.544 54.9616 839.941 55.4141 839.238 55.7266C838.542 56.0391 837.76 56.1953 836.895 56.1953C836.055 56.1953 835.283 56.0391 834.58 55.7266C833.883 55.4141 833.278 54.9616 832.764 54.3691C832.256 53.7767 831.862 53.0573 831.582 52.2109C831.302 51.3646 831.162 50.4076 831.162 49.3398V48.4414C831.162 47.3737 831.299 46.4199 831.572 45.5801C831.852 44.7337 832.246 44.0143 832.754 43.4219C833.262 42.8229 833.864 42.3672 834.561 42.0547C835.264 41.7422 836.035 41.5859 836.875 41.5859C837.741 41.5859 838.522 41.7422 839.219 42.0547C839.922 42.3672 840.524 42.8229 841.025 43.4219C841.533 44.0143 841.921 44.7337 842.188 45.5801C842.461 46.4199 842.598 47.3737 842.598 48.4414ZM840.732 49.3398V48.4219C840.732 47.5755 840.645 46.8268 840.469 46.1758C840.299 45.5247 840.049 44.9779 839.717 44.5352C839.385 44.0924 838.978 43.7572 838.496 43.5293C838.021 43.3014 837.48 43.1875 836.875 43.1875C836.289 43.1875 835.758 43.3014 835.283 43.5293C834.814 43.7572 834.411 44.0924 834.072 44.5352C833.74 44.9779 833.483 45.5247 833.301 46.1758C833.118 46.8268 833.027 47.5755 833.027 48.4219V49.3398C833.027 50.1927 833.118 50.9479 833.301 51.6055C833.483 52.2565 833.743 52.8066 834.082 53.2559C834.427 53.6986 834.834 54.0339 835.303 54.2617C835.778 54.4896 836.309 54.6035 836.895 54.6035C837.507 54.6035 838.05 54.4896 838.525 54.2617C839.001 54.0339 839.401 53.6986 839.727 53.2559C840.059 52.8066 840.309 52.2565 840.479 51.6055C840.648 50.9479 840.732 50.1927 840.732 49.3398ZM851.611 53.5586V45.4336H853.428V56H851.699L851.611 53.5586ZM851.953 51.332L852.705 51.3125C852.705 52.0156 852.63 52.6667 852.48 53.2656C852.337 53.8581 852.103 54.3724 851.777 54.8086C851.452 55.2448 851.025 55.5866 850.498 55.834C849.971 56.0749 849.329 56.1953 848.574 56.1953C848.06 56.1953 847.588 56.1204 847.158 55.9707C846.735 55.821 846.37 55.5898 846.064 55.2773C845.758 54.9648 845.521 54.5579 845.352 54.0566C845.189 53.5553 845.107 52.9531 845.107 52.25V45.4336H846.914V52.2695C846.914 52.7448 846.966 53.1387 847.07 53.4512C847.181 53.7572 847.327 54.0013 847.51 54.1836C847.699 54.3594 847.907 54.4831 848.135 54.5547C848.369 54.6263 848.61 54.6621 848.857 54.6621C849.626 54.6621 850.234 54.5156 850.684 54.2227C851.133 53.9232 851.455 53.5228 851.65 53.0215C851.852 52.5137 851.953 51.9505 851.953 51.332ZM857.988 47.0938V56H856.182V45.4336H857.939L857.988 47.0938ZM861.289 45.375L861.279 47.0547C861.13 47.0221 860.986 47.0026 860.85 46.9961C860.719 46.9831 860.57 46.9766 860.4 46.9766C859.984 46.9766 859.616 47.0417 859.297 47.1719C858.978 47.3021 858.708 47.4844 858.486 47.7188C858.265 47.9531 858.089 48.2331 857.959 48.5586C857.835 48.8776 857.754 49.2292 857.715 49.6133L857.207 49.9062C857.207 49.2682 857.269 48.6693 857.393 48.1094C857.523 47.5495 857.721 47.0547 857.988 46.625C858.255 46.1888 858.594 45.8503 859.004 45.6094C859.421 45.362 859.915 45.2383 860.488 45.2383C860.618 45.2383 860.768 45.2546 860.938 45.2871C861.107 45.3132 861.224 45.3424 861.289 45.375ZM873.262 49.3496H869.658L869.639 47.8359H872.91C873.451 47.8359 873.923 47.7448 874.326 47.5625C874.73 47.3802 875.042 47.1198 875.264 46.7812C875.492 46.4362 875.605 46.026 875.605 45.5508C875.605 45.0299 875.505 44.6068 875.303 44.2812C875.107 43.9492 874.805 43.7083 874.395 43.5586C873.991 43.4023 873.477 43.3242 872.852 43.3242H870.078V56H868.193V41.7812H872.852C873.581 41.7812 874.232 41.8561 874.805 42.0059C875.378 42.1491 875.863 42.377 876.26 42.6895C876.663 42.9954 876.969 43.3861 877.178 43.8613C877.386 44.3366 877.49 44.9062 877.49 45.5703C877.49 46.1562 877.34 46.6868 877.041 47.1621C876.742 47.6309 876.325 48.015 875.791 48.3145C875.264 48.6139 874.645 48.806 873.936 48.8906L873.262 49.3496ZM873.174 56H868.916L869.98 54.4668H873.174C873.773 54.4668 874.281 54.3626 874.697 54.1543C875.12 53.946 875.443 53.653 875.664 53.2754C875.885 52.8913 875.996 52.4388 875.996 51.918C875.996 51.3906 875.902 50.9349 875.713 50.5508C875.524 50.1667 875.228 49.8704 874.824 49.6621C874.421 49.4538 873.9 49.3496 873.262 49.3496H870.576L870.596 47.8359H874.268L874.668 48.3828C875.352 48.4414 875.931 48.6367 876.406 48.9688C876.882 49.2943 877.243 49.7109 877.49 50.2188C877.744 50.7266 877.871 51.2865 877.871 51.8984C877.871 52.7839 877.676 53.5326 877.285 54.1445C876.901 54.75 876.357 55.2122 875.654 55.5312C874.951 55.8438 874.124 56 873.174 56ZM882.344 41V56H880.527V41H882.344ZM884.766 50.834V50.6094C884.766 49.8477 884.876 49.1413 885.098 48.4902C885.319 47.8327 885.638 47.263 886.055 46.7812C886.471 46.293 886.976 45.9154 887.568 45.6484C888.161 45.375 888.825 45.2383 889.561 45.2383C890.303 45.2383 890.97 45.375 891.562 45.6484C892.161 45.9154 892.669 46.293 893.086 46.7812C893.509 47.263 893.831 47.8327 894.053 48.4902C894.274 49.1413 894.385 49.8477 894.385 50.6094V50.834C894.385 51.5957 894.274 52.3021 894.053 52.9531C893.831 53.6042 893.509 54.1738 893.086 54.6621C892.669 55.1439 892.165 55.5215 891.572 55.7949C890.986 56.0618 890.322 56.1953 889.58 56.1953C888.838 56.1953 888.171 56.0618 887.578 55.7949C886.986 55.5215 886.478 55.1439 886.055 54.6621C885.638 54.1738 885.319 53.6042 885.098 52.9531C884.876 52.3021 884.766 51.5957 884.766 50.834ZM886.572 50.6094V50.834C886.572 51.3613 886.634 51.8594 886.758 52.3281C886.882 52.7904 887.067 53.2005 887.314 53.5586C887.568 53.9167 887.884 54.1999 888.262 54.4082C888.639 54.61 889.079 54.7109 889.58 54.7109C890.075 54.7109 890.508 54.61 890.879 54.4082C891.257 54.1999 891.569 53.9167 891.816 53.5586C892.064 53.2005 892.249 52.7904 892.373 52.3281C892.503 51.8594 892.568 51.3613 892.568 50.834V50.6094C892.568 50.0885 892.503 49.597 892.373 49.1348C892.249 48.666 892.061 48.2526 891.807 47.8945C891.559 47.5299 891.247 47.2435 890.869 47.0352C890.498 46.8268 890.062 46.7227 889.561 46.7227C889.066 46.7227 888.63 46.8268 888.252 47.0352C887.881 47.2435 887.568 47.5299 887.314 47.8945C887.067 48.2526 886.882 48.666 886.758 49.1348C886.634 49.597 886.572 50.0885 886.572 50.6094ZM903.496 45.4336H905.137V55.7754C905.137 56.7064 904.948 57.5007 904.57 58.1582C904.193 58.8158 903.665 59.3138 902.988 59.6523C902.318 59.9974 901.543 60.1699 900.664 60.1699C900.299 60.1699 899.87 60.1113 899.375 59.9941C898.887 59.8835 898.405 59.6914 897.93 59.418C897.461 59.151 897.067 58.7897 896.748 58.334L897.695 57.2598C898.138 57.7936 898.6 58.1647 899.082 58.373C899.57 58.5814 900.052 58.6855 900.527 58.6855C901.1 58.6855 901.595 58.5781 902.012 58.3633C902.428 58.1484 902.751 57.8294 902.979 57.4062C903.213 56.9896 903.33 56.4753 903.33 55.8633V47.7578L903.496 45.4336ZM896.221 50.834V50.6289C896.221 49.8216 896.315 49.0892 896.504 48.4316C896.699 47.7676 896.976 47.1979 897.334 46.7227C897.699 46.2474 898.138 45.8828 898.652 45.6289C899.167 45.3685 899.746 45.2383 900.391 45.2383C901.055 45.2383 901.634 45.3555 902.129 45.5898C902.63 45.8177 903.053 46.153 903.398 46.5957C903.75 47.0319 904.027 47.5592 904.229 48.1777C904.43 48.7962 904.57 49.4961 904.648 50.2773V51.1758C904.577 51.9505 904.437 52.6471 904.229 53.2656C904.027 53.8841 903.75 54.4115 903.398 54.8477C903.053 55.2839 902.63 55.6191 902.129 55.8535C901.628 56.0814 901.042 56.1953 900.371 56.1953C899.74 56.1953 899.167 56.0618 898.652 55.7949C898.145 55.528 897.708 55.1536 897.344 54.6719C896.979 54.1901 896.699 53.6237 896.504 52.9727C896.315 52.3151 896.221 51.6022 896.221 50.834ZM898.027 50.6289V50.834C898.027 51.3613 898.079 51.8561 898.184 52.3184C898.294 52.7806 898.46 53.1875 898.682 53.5391C898.91 53.8906 899.199 54.1673 899.551 54.3691C899.902 54.5645 900.322 54.6621 900.811 54.6621C901.41 54.6621 901.904 54.5352 902.295 54.2812C902.686 54.0273 902.995 53.6921 903.223 53.2754C903.457 52.8587 903.639 52.4062 903.77 51.918V49.5645C903.698 49.2064 903.587 48.8613 903.438 48.5293C903.294 48.1908 903.105 47.8913 902.871 47.6309C902.643 47.3639 902.36 47.1523 902.021 46.9961C901.683 46.8398 901.286 46.7617 900.83 46.7617C900.335 46.7617 899.909 46.8659 899.551 47.0742C899.199 47.276 898.91 47.556 898.682 47.9141C898.46 48.2656 898.294 48.6758 898.184 49.1445C898.079 49.6068 898.027 50.1016 898.027 50.6289Z"
        fill="white" />
    <path
        d="M982.229 52.4062C982.229 52.0742 982.176 51.7812 982.072 51.5273C981.975 51.2669 981.799 51.0326 981.545 50.8242C981.298 50.6159 980.952 50.4173 980.51 50.2285C980.074 50.0397 979.52 49.8477 978.85 49.6523C978.146 49.444 977.512 49.2129 976.945 48.959C976.379 48.6986 975.894 48.4023 975.49 48.0703C975.087 47.7383 974.777 47.3574 974.562 46.9277C974.348 46.498 974.24 46.0065 974.24 45.4531C974.24 44.8997 974.354 44.3887 974.582 43.9199C974.81 43.4512 975.135 43.0443 975.559 42.6992C975.988 42.3477 976.499 42.0742 977.092 41.8789C977.684 41.6836 978.345 41.5859 979.074 41.5859C980.142 41.5859 981.047 41.791 981.789 42.2012C982.538 42.6048 983.107 43.1354 983.498 43.793C983.889 44.444 984.084 45.1406 984.084 45.8828H982.209C982.209 45.349 982.095 44.877 981.867 44.4668C981.639 44.0501 981.294 43.7246 980.832 43.4902C980.37 43.2493 979.784 43.1289 979.074 43.1289C978.404 43.1289 977.85 43.2298 977.414 43.4316C976.978 43.6335 976.652 43.9069 976.438 44.252C976.229 44.597 976.125 44.9909 976.125 45.4336C976.125 45.7331 976.187 46.0065 976.311 46.2539C976.441 46.4948 976.639 46.7194 976.906 46.9277C977.18 47.1361 977.525 47.3281 977.941 47.5039C978.365 47.6797 978.869 47.849 979.455 48.0117C980.262 48.2396 980.959 48.4935 981.545 48.7734C982.131 49.0534 982.613 49.3691 982.99 49.7207C983.374 50.0658 983.658 50.4596 983.84 50.9023C984.029 51.3385 984.123 51.8333 984.123 52.3867C984.123 52.9661 984.006 53.4902 983.771 53.959C983.537 54.4277 983.202 54.8281 982.766 55.1602C982.329 55.4922 981.805 55.7493 981.193 55.9316C980.588 56.1074 979.911 56.1953 979.162 56.1953C978.505 56.1953 977.857 56.1042 977.219 55.9219C976.587 55.7396 976.011 55.4661 975.49 55.1016C974.976 54.737 974.562 54.2878 974.25 53.7539C973.944 53.2135 973.791 52.5885 973.791 51.8789H975.666C975.666 52.3672 975.76 52.7871 975.949 53.1387C976.138 53.4837 976.395 53.7702 976.721 53.998C977.053 54.2259 977.427 54.3952 977.844 54.5059C978.267 54.61 978.706 54.6621 979.162 54.6621C979.82 54.6621 980.376 54.571 980.832 54.3887C981.288 54.2064 981.633 53.946 981.867 53.6074C982.108 53.2689 982.229 52.8685 982.229 52.4062ZM992.717 53.5586V45.4336H994.533V56H992.805L992.717 53.5586ZM993.059 51.332L993.811 51.3125C993.811 52.0156 993.736 52.6667 993.586 53.2656C993.443 53.8581 993.208 54.3724 992.883 54.8086C992.557 55.2448 992.131 55.5866 991.604 55.834C991.076 56.0749 990.435 56.1953 989.68 56.1953C989.165 56.1953 988.693 56.1204 988.264 55.9707C987.84 55.821 987.476 55.5898 987.17 55.2773C986.864 54.9648 986.626 54.5579 986.457 54.0566C986.294 53.5553 986.213 52.9531 986.213 52.25V45.4336H988.02V52.2695C988.02 52.7448 988.072 53.1387 988.176 53.4512C988.286 53.7572 988.433 54.0013 988.615 54.1836C988.804 54.3594 989.012 54.4831 989.24 54.5547C989.475 54.6263 989.715 54.6621 989.963 54.6621C990.731 54.6621 991.34 54.5156 991.789 54.2227C992.238 53.9232 992.561 53.5228 992.756 53.0215C992.958 52.5137 993.059 51.9505 993.059 51.332ZM999.094 47.4648V60.0625H997.277V45.4336H998.938L999.094 47.4648ZM1006.21 50.6289V50.834C1006.21 51.6022 1006.12 52.3151 1005.94 52.9727C1005.76 53.6237 1005.49 54.1901 1005.14 54.6719C1004.79 55.1536 1004.37 55.528 1003.86 55.7949C1003.35 56.0618 1002.77 56.1953 1002.11 56.1953C1001.44 56.1953 1000.85 56.0846 1000.33 55.8633C999.82 55.6419 999.383 55.3197 999.025 54.8965C998.667 54.4733 998.381 53.9655 998.166 53.373C997.958 52.7806 997.814 52.1133 997.736 51.3711V50.2773C997.814 49.4961 997.961 48.7962 998.176 48.1777C998.391 47.5592 998.674 47.0319 999.025 46.5957C999.383 46.153 999.816 45.8177 1000.32 45.5898C1000.83 45.3555 1001.42 45.2383 1002.08 45.2383C1002.75 45.2383 1003.34 45.3685 1003.85 45.6289C1004.36 45.8828 1004.8 46.2474 1005.15 46.7227C1005.5 47.1979 1005.76 47.7676 1005.94 48.4316C1006.12 49.0892 1006.21 49.8216 1006.21 50.6289ZM1004.4 50.834V50.6289C1004.4 50.1016 1004.34 49.6068 1004.23 49.1445C1004.12 48.6758 1003.95 48.2656 1003.71 47.9141C1003.49 47.556 1003.19 47.276 1002.83 47.0742C1002.48 46.8659 1002.05 46.7617 1001.55 46.7617C1001.1 46.7617 1000.7 46.8398 1000.36 46.9961C1000.03 47.1523 999.748 47.3639 999.514 47.6309C999.279 47.8913 999.087 48.1908 998.938 48.5293C998.794 48.8613 998.687 49.2064 998.615 49.5645V52.0938C998.745 52.5495 998.928 52.9792 999.162 53.3828C999.396 53.7799 999.709 54.1022 1000.1 54.3496C1000.49 54.5905 1000.98 54.7109 1001.57 54.7109C1002.06 54.7109 1002.48 54.61 1002.83 54.4082C1003.19 54.1999 1003.49 53.9167 1003.71 53.5586C1003.95 53.2005 1004.12 52.7904 1004.23 52.3281C1004.34 51.8594 1004.4 51.3613 1004.4 50.834ZM1010.32 47.4648V60.0625H1008.51V45.4336H1010.17L1010.32 47.4648ZM1017.44 50.6289V50.834C1017.44 51.6022 1017.35 52.3151 1017.17 52.9727C1016.99 53.6237 1016.72 54.1901 1016.37 54.6719C1016.02 55.1536 1015.6 55.528 1015.09 55.7949C1014.58 56.0618 1014 56.1953 1013.34 56.1953C1012.67 56.1953 1012.08 56.0846 1011.56 55.8633C1011.05 55.6419 1010.61 55.3197 1010.26 54.8965C1009.9 54.4733 1009.61 53.9655 1009.4 53.373C1009.19 52.7806 1009.04 52.1133 1008.97 51.3711V50.2773C1009.04 49.4961 1009.19 48.7962 1009.41 48.1777C1009.62 47.5592 1009.9 47.0319 1010.26 46.5957C1010.61 46.153 1011.05 45.8177 1011.55 45.5898C1012.06 45.3555 1012.65 45.2383 1013.31 45.2383C1013.98 45.2383 1014.57 45.3685 1015.08 45.6289C1015.59 45.8828 1016.03 46.2474 1016.38 46.7227C1016.73 47.1979 1016.99 47.7676 1017.17 48.4316C1017.35 49.0892 1017.44 49.8216 1017.44 50.6289ZM1015.63 50.834V50.6289C1015.63 50.1016 1015.57 49.6068 1015.46 49.1445C1015.35 48.6758 1015.18 48.2656 1014.94 47.9141C1014.72 47.556 1014.42 47.276 1014.06 47.0742C1013.71 46.8659 1013.28 46.7617 1012.79 46.7617C1012.33 46.7617 1011.93 46.8398 1011.59 46.9961C1011.26 47.1523 1010.98 47.3639 1010.74 47.6309C1010.51 47.8913 1010.32 48.1908 1010.17 48.5293C1010.02 48.8613 1009.92 49.2064 1009.85 49.5645V52.0938C1009.98 52.5495 1010.16 52.9792 1010.39 53.3828C1010.63 53.7799 1010.94 54.1022 1011.33 54.3496C1011.72 54.5905 1012.21 54.7109 1012.8 54.7109C1013.29 54.7109 1013.71 54.61 1014.06 54.4082C1014.42 54.1999 1014.72 53.9167 1014.94 53.5586C1015.18 53.2005 1015.35 52.7904 1015.46 52.3281C1015.57 51.8594 1015.63 51.3613 1015.63 50.834ZM1019.27 50.834V50.6094C1019.27 49.8477 1019.38 49.1413 1019.6 48.4902C1019.82 47.8327 1020.14 47.263 1020.56 46.7812C1020.98 46.293 1021.48 45.9154 1022.07 45.6484C1022.66 45.375 1023.33 45.2383 1024.06 45.2383C1024.81 45.2383 1025.47 45.375 1026.07 45.6484C1026.67 45.9154 1027.17 46.293 1027.59 46.7812C1028.01 47.263 1028.34 47.8327 1028.56 48.4902C1028.78 49.1413 1028.89 49.8477 1028.89 50.6094V50.834C1028.89 51.5957 1028.78 52.3021 1028.56 52.9531C1028.34 53.6042 1028.01 54.1738 1027.59 54.6621C1027.17 55.1439 1026.67 55.5215 1026.08 55.7949C1025.49 56.0618 1024.83 56.1953 1024.08 56.1953C1023.34 56.1953 1022.67 56.0618 1022.08 55.7949C1021.49 55.5215 1020.98 55.1439 1020.56 54.6621C1020.14 54.1738 1019.82 53.6042 1019.6 52.9531C1019.38 52.3021 1019.27 51.5957 1019.27 50.834ZM1021.08 50.6094V50.834C1021.08 51.3613 1021.14 51.8594 1021.26 52.3281C1021.39 52.7904 1021.57 53.2005 1021.82 53.5586C1022.07 53.9167 1022.39 54.1999 1022.77 54.4082C1023.14 54.61 1023.58 54.7109 1024.08 54.7109C1024.58 54.7109 1025.01 54.61 1025.38 54.4082C1025.76 54.1999 1026.07 53.9167 1026.32 53.5586C1026.57 53.2005 1026.75 52.7904 1026.88 52.3281C1027.01 51.8594 1027.07 51.3613 1027.07 50.834V50.6094C1027.07 50.0885 1027.01 49.597 1026.88 49.1348C1026.75 48.666 1026.56 48.2526 1026.31 47.8945C1026.06 47.5299 1025.75 47.2435 1025.37 47.0352C1025 46.8268 1024.57 46.7227 1024.06 46.7227C1023.57 46.7227 1023.13 46.8268 1022.76 47.0352C1022.38 47.2435 1022.07 47.5299 1021.82 47.8945C1021.57 48.2526 1021.39 48.666 1021.26 49.1348C1021.14 49.597 1021.08 50.0885 1021.08 50.6094ZM1032.96 47.0938V56H1031.15V45.4336H1032.91L1032.96 47.0938ZM1036.26 45.375L1036.25 47.0547C1036.1 47.0221 1035.96 47.0026 1035.82 46.9961C1035.69 46.9831 1035.54 46.9766 1035.37 46.9766C1034.96 46.9766 1034.59 47.0417 1034.27 47.1719C1033.95 47.3021 1033.68 47.4844 1033.46 47.7188C1033.24 47.9531 1033.06 48.2331 1032.93 48.5586C1032.81 48.8776 1032.73 49.2292 1032.69 49.6133L1032.18 49.9062C1032.18 49.2682 1032.24 48.6693 1032.37 48.1094C1032.5 47.5495 1032.69 47.0547 1032.96 46.625C1033.23 46.1888 1033.57 45.8503 1033.98 45.6094C1034.39 45.362 1034.89 45.2383 1035.46 45.2383C1035.59 45.2383 1035.74 45.2546 1035.91 45.2871C1036.08 45.3132 1036.2 45.3424 1036.26 45.375ZM1042.84 45.4336V46.8203H1037.13V45.4336H1042.84ZM1039.06 42.8652H1040.87V53.3828C1040.87 53.7409 1040.93 54.0111 1041.04 54.1934C1041.15 54.3757 1041.29 54.4961 1041.47 54.5547C1041.64 54.6133 1041.83 54.6426 1042.03 54.6426C1042.18 54.6426 1042.34 54.6296 1042.5 54.6035C1042.67 54.571 1042.8 54.5449 1042.88 54.5254L1042.89 56C1042.75 56.0456 1042.56 56.0879 1042.33 56.127C1042.1 56.1725 1041.82 56.1953 1041.5 56.1953C1041.05 56.1953 1040.65 56.1074 1040.28 55.9316C1039.9 55.7559 1039.61 55.4629 1039.39 55.0527C1039.17 54.6361 1039.06 54.0762 1039.06 53.373V42.8652Z"
        fill="white" />
    <path
        d="M1116.91 43.041L1112.21 56H1110.28L1115.7 41.7812H1116.94L1116.91 43.041ZM1120.86 56L1116.14 43.041L1116.11 41.7812H1117.35L1122.79 56H1120.86ZM1120.62 50.7363V52.2793H1112.63V50.7363H1120.62ZM1127.12 56H1125.31V44.3203C1125.31 43.5586 1125.45 42.9173 1125.72 42.3965C1126 41.8691 1126.4 41.472 1126.92 41.2051C1127.44 40.9316 1128.06 40.7949 1128.78 40.7949C1128.99 40.7949 1129.2 40.8079 1129.4 40.834C1129.62 40.86 1129.83 40.8991 1130.03 40.9512L1129.93 42.4258C1129.79 42.3932 1129.64 42.3704 1129.46 42.3574C1129.29 42.3444 1129.12 42.3379 1128.96 42.3379C1128.57 42.3379 1128.24 42.416 1127.96 42.5723C1127.69 42.722 1127.48 42.9434 1127.33 43.2363C1127.19 43.5293 1127.12 43.8906 1127.12 44.3203V56ZM1129.46 45.4336V46.8203H1123.64V45.4336H1129.46ZM1132.83 56H1131.03V44.5156C1131.03 43.7148 1131.18 43.0378 1131.48 42.4844C1131.8 41.931 1132.24 41.5111 1132.82 41.2246C1133.4 40.9382 1134.09 40.7949 1134.88 40.7949C1135.36 40.7949 1135.82 40.8535 1136.27 40.9707C1136.72 41.0814 1137.18 41.2214 1137.66 41.3906L1137.34 42.9141C1137.05 42.7969 1136.71 42.6862 1136.31 42.582C1135.91 42.4714 1135.48 42.416 1135.02 42.416C1134.24 42.416 1133.68 42.5918 1133.34 42.9434C1133 43.2884 1132.83 43.8125 1132.83 44.5156V56ZM1134.99 45.4336V46.8203H1129.36V45.4336H1134.99ZM1138.54 45.4336V56H1136.74V45.4336H1138.54ZM1143.46 41V56H1141.64V41H1143.46ZM1148.32 45.4336V56H1146.5V45.4336H1148.32ZM1146.37 42.6309C1146.37 42.3379 1146.46 42.0905 1146.63 41.8887C1146.81 41.6868 1147.08 41.5859 1147.43 41.5859C1147.78 41.5859 1148.04 41.6868 1148.22 41.8887C1148.41 42.0905 1148.51 42.3379 1148.51 42.6309C1148.51 42.9108 1148.41 43.1517 1148.22 43.3535C1148.04 43.5488 1147.78 43.6465 1147.43 43.6465C1147.08 43.6465 1146.81 43.5488 1146.63 43.3535C1146.46 43.1517 1146.37 42.9108 1146.37 42.6309ZM1157.45 54.1934V48.7539C1157.45 48.3372 1157.37 47.9759 1157.2 47.6699C1157.03 47.3574 1156.79 47.1165 1156.46 46.9473C1156.12 46.778 1155.71 46.6934 1155.22 46.6934C1154.77 46.6934 1154.37 46.7715 1154.02 46.9277C1153.68 47.084 1153.42 47.2891 1153.22 47.543C1153.03 47.7969 1152.94 48.0703 1152.94 48.3633H1151.13C1151.13 47.9857 1151.23 47.6113 1151.43 47.2402C1151.62 46.8691 1151.9 46.5339 1152.27 46.2344C1152.64 45.9284 1153.08 45.6875 1153.59 45.5117C1154.11 45.3294 1154.69 45.2383 1155.33 45.2383C1156.1 45.2383 1156.78 45.3685 1157.36 45.6289C1157.96 45.8893 1158.42 46.2832 1158.75 46.8105C1159.09 47.3314 1159.26 47.9857 1159.26 48.7734V53.6953C1159.26 54.0469 1159.29 54.4212 1159.35 54.8184C1159.41 55.2155 1159.51 55.5573 1159.63 55.8438V56H1157.74C1157.65 55.7917 1157.58 55.515 1157.53 55.1699C1157.48 54.8184 1157.45 54.4928 1157.45 54.1934ZM1157.76 49.5938L1157.78 50.8633H1155.96C1155.44 50.8633 1154.98 50.9056 1154.58 50.9902C1154.18 51.0684 1153.84 51.1888 1153.56 51.3516C1153.29 51.5143 1153.08 51.7194 1152.94 51.9668C1152.8 52.2077 1152.72 52.4909 1152.72 52.8164C1152.72 53.1484 1152.8 53.4512 1152.95 53.7246C1153.1 53.998 1153.32 54.2161 1153.62 54.3789C1153.93 54.5352 1154.3 54.6133 1154.75 54.6133C1155.3 54.6133 1155.79 54.4961 1156.21 54.2617C1156.63 54.0273 1156.97 53.7409 1157.22 53.4023C1157.47 53.0638 1157.61 52.735 1157.63 52.416L1158.4 53.2852C1158.35 53.5586 1158.23 53.8613 1158.03 54.1934C1157.83 54.5254 1157.56 54.8444 1157.22 55.1504C1156.88 55.4499 1156.49 55.7005 1156.03 55.9023C1155.57 56.0977 1155.06 56.1953 1154.48 56.1953C1153.77 56.1953 1153.14 56.0553 1152.6 55.7754C1152.06 55.4954 1151.65 55.1211 1151.35 54.6523C1151.05 54.1771 1150.91 53.6465 1150.91 53.0605C1150.91 52.4941 1151.02 51.9961 1151.24 51.5664C1151.46 51.1302 1151.78 50.7689 1152.2 50.4824C1152.61 50.1895 1153.12 49.9681 1153.7 49.8184C1154.29 49.6686 1154.94 49.5938 1155.66 49.5938H1157.76ZM1166.52 45.4336V46.8203H1160.81V45.4336H1166.52ZM1162.74 42.8652H1164.55V53.3828C1164.55 53.7409 1164.61 54.0111 1164.72 54.1934C1164.83 54.3757 1164.97 54.4961 1165.15 54.5547C1165.32 54.6133 1165.51 54.6426 1165.71 54.6426C1165.86 54.6426 1166.02 54.6296 1166.18 54.6035C1166.35 54.571 1166.48 54.5449 1166.56 54.5254L1166.57 56C1166.43 56.0456 1166.24 56.0879 1166.01 56.127C1165.78 56.1725 1165.5 56.1953 1165.18 56.1953C1164.73 56.1953 1164.33 56.1074 1163.96 55.9316C1163.58 55.7559 1163.29 55.4629 1163.07 55.0527C1162.85 54.6361 1162.74 54.0762 1162.74 53.373V42.8652ZM1173.03 56.1953C1172.29 56.1953 1171.62 56.0716 1171.03 55.8242C1170.43 55.5703 1169.92 55.2155 1169.49 54.7598C1169.07 54.304 1168.74 53.7637 1168.52 53.1387C1168.29 52.5137 1168.17 51.8301 1168.17 51.0879V50.6777C1168.17 49.8184 1168.3 49.0534 1168.55 48.3828C1168.81 47.7057 1169.15 47.1328 1169.59 46.6641C1170.03 46.1953 1170.52 45.8405 1171.07 45.5996C1171.63 45.3587 1172.2 45.2383 1172.79 45.2383C1173.55 45.2383 1174.2 45.3685 1174.75 45.6289C1175.3 45.8893 1175.75 46.2539 1176.1 46.7227C1176.46 47.1849 1176.72 47.7318 1176.88 48.3633C1177.05 48.9883 1177.14 49.6719 1177.14 50.4141V51.2246H1169.25V49.75H1175.33V49.6133C1175.31 49.1445 1175.21 48.6888 1175.04 48.2461C1174.88 47.8034 1174.62 47.4388 1174.26 47.1523C1173.9 46.8659 1173.41 46.7227 1172.79 46.7227C1172.38 46.7227 1172.01 46.8105 1171.66 46.9863C1171.32 47.1556 1171.02 47.4095 1170.77 47.748C1170.52 48.0866 1170.33 48.5 1170.2 48.9883C1170.06 49.4766 1169.99 50.0397 1169.99 50.6777V51.0879C1169.99 51.5892 1170.06 52.0612 1170.2 52.5039C1170.34 52.9401 1170.54 53.3242 1170.81 53.6562C1171.08 53.9883 1171.41 54.2487 1171.8 54.4375C1172.19 54.6263 1172.63 54.7207 1173.12 54.7207C1173.76 54.7207 1174.3 54.5905 1174.75 54.3301C1175.19 54.0697 1175.58 53.7214 1175.91 53.2852L1177 54.1543C1176.77 54.4993 1176.48 54.8281 1176.13 55.1406C1175.78 55.4531 1175.35 55.707 1174.83 55.9023C1174.33 56.0977 1173.72 56.1953 1173.03 56.1953Z"
        fill="white" />
    <path
        d="M1250.89 50.9238H1247.1V49.3906H1250.89C1251.63 49.3906 1252.23 49.2734 1252.68 49.0391C1253.14 48.8047 1253.47 48.4792 1253.68 48.0625C1253.89 47.6458 1254 47.1706 1254 46.6367C1254 46.1484 1253.89 45.6895 1253.68 45.2598C1253.47 44.8301 1253.14 44.485 1252.68 44.2246C1252.23 43.9577 1251.63 43.8242 1250.89 43.8242H1247.54V56.5H1245.65V42.2812H1250.89C1251.97 42.2812 1252.88 42.4668 1253.62 42.8379C1254.36 43.209 1254.92 43.7233 1255.31 44.3809C1255.69 45.0319 1255.88 45.7773 1255.88 46.6172C1255.88 47.5286 1255.69 48.3066 1255.31 48.9512C1254.92 49.5957 1254.36 50.0872 1253.62 50.4258C1252.88 50.7578 1251.97 50.9238 1250.89 50.9238ZM1259.8 47.5938V56.5H1257.99V45.9336H1259.75L1259.8 47.5938ZM1263.1 45.875L1263.09 47.5547C1262.94 47.5221 1262.8 47.5026 1262.66 47.4961C1262.53 47.4831 1262.38 47.4766 1262.21 47.4766C1261.8 47.4766 1261.43 47.5417 1261.11 47.6719C1260.79 47.8021 1260.52 47.9844 1260.3 48.2188C1260.08 48.4531 1259.9 48.7331 1259.77 49.0586C1259.65 49.3776 1259.57 49.7292 1259.53 50.1133L1259.02 50.4062C1259.02 49.7682 1259.08 49.1693 1259.21 48.6094C1259.34 48.0495 1259.53 47.5547 1259.8 47.125C1260.07 46.6888 1260.41 46.3503 1260.82 46.1094C1261.23 45.862 1261.73 45.7383 1262.3 45.7383C1262.43 45.7383 1262.58 45.7546 1262.75 45.7871C1262.92 45.8132 1263.04 45.8424 1263.1 45.875ZM1264.1 51.334V51.1094C1264.1 50.3477 1264.21 49.6413 1264.43 48.9902C1264.65 48.3327 1264.97 47.763 1265.39 47.2812C1265.8 46.793 1266.31 46.4154 1266.9 46.1484C1267.49 45.875 1268.16 45.7383 1268.89 45.7383C1269.63 45.7383 1270.3 45.875 1270.89 46.1484C1271.49 46.4154 1272 46.793 1272.42 47.2812C1272.84 47.763 1273.16 48.3327 1273.38 48.9902C1273.61 49.6413 1273.72 50.3477 1273.72 51.1094V51.334C1273.72 52.0957 1273.61 52.8021 1273.38 53.4531C1273.16 54.1042 1272.84 54.6738 1272.42 55.1621C1272 55.6439 1271.5 56.0215 1270.9 56.2949C1270.32 56.5618 1269.65 56.6953 1268.91 56.6953C1268.17 56.6953 1267.5 56.5618 1266.91 56.2949C1266.32 56.0215 1265.81 55.6439 1265.39 55.1621C1264.97 54.6738 1264.65 54.1042 1264.43 53.4531C1264.21 52.8021 1264.1 52.0957 1264.1 51.334ZM1265.9 51.1094V51.334C1265.9 51.8613 1265.97 52.3594 1266.09 52.8281C1266.21 53.2904 1266.4 53.7005 1266.65 54.0586C1266.9 54.4167 1267.22 54.6999 1267.59 54.9082C1267.97 55.11 1268.41 55.2109 1268.91 55.2109C1269.41 55.2109 1269.84 55.11 1270.21 54.9082C1270.59 54.6999 1270.9 54.4167 1271.15 54.0586C1271.4 53.7005 1271.58 53.2904 1271.71 52.8281C1271.84 52.3594 1271.9 51.8613 1271.9 51.334V51.1094C1271.9 50.5885 1271.84 50.097 1271.71 49.6348C1271.58 49.166 1271.39 48.7526 1271.14 48.3945C1270.89 48.0299 1270.58 47.7435 1270.2 47.5352C1269.83 47.3268 1269.39 47.2227 1268.89 47.2227C1268.4 47.2227 1267.96 47.3268 1267.58 47.5352C1267.21 47.7435 1266.9 48.0299 1266.65 48.3945C1266.4 48.7526 1266.21 49.166 1266.09 49.6348C1265.97 50.097 1265.9 50.5885 1265.9 51.1094ZM1282.83 45.9336H1284.47V56.2754C1284.47 57.2064 1284.28 58.0007 1283.9 58.6582C1283.52 59.3158 1283 59.8138 1282.32 60.1523C1281.65 60.4974 1280.88 60.6699 1280 60.6699C1279.63 60.6699 1279.2 60.6113 1278.71 60.4941C1278.22 60.3835 1277.74 60.1914 1277.26 59.918C1276.79 59.651 1276.4 59.2897 1276.08 58.834L1277.03 57.7598C1277.47 58.2936 1277.93 58.6647 1278.41 58.873C1278.9 59.0814 1279.38 59.1855 1279.86 59.1855C1280.43 59.1855 1280.93 59.0781 1281.34 58.8633C1281.76 58.6484 1282.08 58.3294 1282.31 57.9062C1282.54 57.4896 1282.66 56.9753 1282.66 56.3633V48.2578L1282.83 45.9336ZM1275.55 51.334V51.1289C1275.55 50.3216 1275.65 49.5892 1275.84 48.9316C1276.03 48.2676 1276.31 47.6979 1276.67 47.2227C1277.03 46.7474 1277.47 46.3828 1277.98 46.1289C1278.5 45.8685 1279.08 45.7383 1279.72 45.7383C1280.39 45.7383 1280.97 45.8555 1281.46 46.0898C1281.96 46.3177 1282.39 46.653 1282.73 47.0957C1283.08 47.5319 1283.36 48.0592 1283.56 48.6777C1283.76 49.2962 1283.9 49.9961 1283.98 50.7773V51.6758C1283.91 52.4505 1283.77 53.1471 1283.56 53.7656C1283.36 54.3841 1283.08 54.9115 1282.73 55.3477C1282.39 55.7839 1281.96 56.1191 1281.46 56.3535C1280.96 56.5814 1280.37 56.6953 1279.7 56.6953C1279.07 56.6953 1278.5 56.5618 1277.98 56.2949C1277.48 56.028 1277.04 55.6536 1276.68 55.1719C1276.31 54.6901 1276.03 54.1237 1275.84 53.4727C1275.65 52.8151 1275.55 52.1022 1275.55 51.334ZM1277.36 51.1289V51.334C1277.36 51.8613 1277.41 52.3561 1277.52 52.8184C1277.63 53.2806 1277.79 53.6875 1278.01 54.0391C1278.24 54.3906 1278.53 54.6673 1278.88 54.8691C1279.23 55.0645 1279.65 55.1621 1280.14 55.1621C1280.74 55.1621 1281.24 55.0352 1281.63 54.7812C1282.02 54.5273 1282.33 54.1921 1282.55 53.7754C1282.79 53.3587 1282.97 52.9062 1283.1 52.418V50.0645C1283.03 49.7064 1282.92 49.3613 1282.77 49.0293C1282.63 48.6908 1282.44 48.3913 1282.2 48.1309C1281.98 47.8639 1281.69 47.6523 1281.35 47.4961C1281.01 47.3398 1280.62 47.2617 1280.16 47.2617C1279.67 47.2617 1279.24 47.3659 1278.88 47.5742C1278.53 47.776 1278.24 48.056 1278.01 48.4141C1277.79 48.7656 1277.63 49.1758 1277.52 49.6445C1277.41 50.1068 1277.36 50.6016 1277.36 51.1289ZM1289.02 47.5938V56.5H1287.21V45.9336H1288.97L1289.02 47.5938ZM1292.32 45.875L1292.31 47.5547C1292.16 47.5221 1292.02 47.5026 1291.88 47.4961C1291.75 47.4831 1291.6 47.4766 1291.43 47.4766C1291.01 47.4766 1290.65 47.5417 1290.33 47.6719C1290.01 47.8021 1289.74 47.9844 1289.52 48.2188C1289.3 48.4531 1289.12 48.7331 1288.99 49.0586C1288.87 49.3776 1288.79 49.7292 1288.75 50.1133L1288.24 50.4062C1288.24 49.7682 1288.3 49.1693 1288.42 48.6094C1288.55 48.0495 1288.75 47.5547 1289.02 47.125C1289.29 46.6888 1289.62 46.3503 1290.04 46.1094C1290.45 45.862 1290.95 45.7383 1291.52 45.7383C1291.65 45.7383 1291.8 45.7546 1291.97 45.7871C1292.14 45.8132 1292.26 45.8424 1292.32 45.875ZM1299.83 54.6934V49.2539C1299.83 48.8372 1299.75 48.4759 1299.58 48.1699C1299.41 47.8574 1299.17 47.6165 1298.83 47.4473C1298.5 47.278 1298.09 47.1934 1297.6 47.1934C1297.15 47.1934 1296.75 47.2715 1296.4 47.4277C1296.06 47.584 1295.8 47.7891 1295.6 48.043C1295.41 48.2969 1295.32 48.5703 1295.32 48.8633H1293.51C1293.51 48.4857 1293.61 48.1113 1293.8 47.7402C1294 47.3691 1294.28 47.0339 1294.64 46.7344C1295.02 46.4284 1295.46 46.1875 1295.97 46.0117C1296.49 45.8294 1297.07 45.7383 1297.71 45.7383C1298.48 45.7383 1299.16 45.8685 1299.74 46.1289C1300.33 46.3893 1300.8 46.7832 1301.13 47.3105C1301.47 47.8314 1301.64 48.4857 1301.64 49.2734V54.1953C1301.64 54.5469 1301.67 54.9212 1301.72 55.3184C1301.79 55.7155 1301.88 56.0573 1302.01 56.3438V56.5H1300.12C1300.03 56.2917 1299.96 56.015 1299.91 55.6699C1299.86 55.3184 1299.83 54.9928 1299.83 54.6934ZM1300.14 50.0938L1300.16 51.3633H1298.34C1297.82 51.3633 1297.36 51.4056 1296.96 51.4902C1296.56 51.5684 1296.22 51.6888 1295.94 51.8516C1295.67 52.0143 1295.46 52.2194 1295.32 52.4668C1295.18 52.7077 1295.1 52.9909 1295.1 53.3164C1295.1 53.6484 1295.18 53.9512 1295.33 54.2246C1295.48 54.498 1295.7 54.7161 1296 54.8789C1296.31 55.0352 1296.68 55.1133 1297.12 55.1133C1297.68 55.1133 1298.17 54.9961 1298.59 54.7617C1299.01 54.5273 1299.35 54.2409 1299.6 53.9023C1299.85 53.5638 1299.99 53.235 1300.01 52.916L1300.78 53.7852C1300.73 54.0586 1300.61 54.3613 1300.41 54.6934C1300.2 55.0254 1299.93 55.3444 1299.6 55.6504C1299.26 55.9499 1298.87 56.2005 1298.4 56.4023C1297.95 56.5977 1297.43 56.6953 1296.86 56.6953C1296.15 56.6953 1295.52 56.5553 1294.98 56.2754C1294.44 55.9954 1294.03 55.6211 1293.73 55.1523C1293.43 54.6771 1293.29 54.1465 1293.29 53.5605C1293.29 52.9941 1293.4 52.4961 1293.62 52.0664C1293.84 51.6302 1294.16 51.2689 1294.58 50.9824C1294.99 50.6895 1295.49 50.4681 1296.08 50.3184C1296.67 50.1686 1297.32 50.0938 1298.04 50.0938H1300.14ZM1306.28 48.0332V56.5H1304.46V45.9336H1306.18L1306.28 48.0332ZM1305.9 50.8164L1305.06 50.7871C1305.07 50.0645 1305.17 49.3971 1305.35 48.7852C1305.53 48.1667 1305.8 47.6296 1306.16 47.1738C1306.52 46.7181 1306.96 46.3665 1307.5 46.1191C1308.03 45.8652 1308.65 45.7383 1309.35 45.7383C1309.85 45.7383 1310.3 45.8099 1310.72 45.9531C1311.14 46.0898 1311.5 46.3079 1311.8 46.6074C1312.11 46.9069 1312.35 47.291 1312.52 47.7598C1312.68 48.2285 1312.77 48.7949 1312.77 49.459V56.5H1310.96V49.5469C1310.96 48.9935 1310.87 48.5508 1310.68 48.2188C1310.5 47.8867 1310.24 47.6458 1309.9 47.4961C1309.56 47.3398 1309.16 47.2617 1308.71 47.2617C1308.17 47.2617 1307.73 47.3561 1307.37 47.5449C1307.01 47.7337 1306.72 47.9941 1306.51 48.3262C1306.29 48.6582 1306.14 49.0391 1306.04 49.4688C1305.95 49.8919 1305.9 50.3411 1305.9 50.8164ZM1312.75 49.8203L1311.54 50.1914C1311.55 49.612 1311.64 49.0553 1311.82 48.5215C1312.01 47.9876 1312.28 47.5124 1312.63 47.0957C1312.99 46.679 1313.43 46.3503 1313.95 46.1094C1314.47 45.862 1315.07 45.7383 1315.74 45.7383C1316.3 45.7383 1316.81 45.8132 1317.24 45.9629C1317.68 46.1126 1318.06 46.3438 1318.36 46.6562C1318.66 46.9622 1318.89 47.3561 1319.05 47.8379C1319.21 48.3197 1319.28 48.8926 1319.28 49.5566V56.5H1317.47V49.5371C1317.47 48.9447 1317.37 48.4857 1317.18 48.1602C1317 47.8281 1316.74 47.597 1316.4 47.4668C1316.07 47.3301 1315.67 47.2617 1315.21 47.2617C1314.81 47.2617 1314.46 47.3301 1314.16 47.4668C1313.85 47.6035 1313.59 47.7923 1313.38 48.0332C1313.18 48.2676 1313.02 48.5378 1312.91 48.8438C1312.8 49.1497 1312.75 49.4753 1312.75 49.8203ZM1328.17 53.6973C1328.17 53.4368 1328.11 53.196 1327.99 52.9746C1327.88 52.7467 1327.65 52.5417 1327.3 52.3594C1326.96 52.1706 1326.43 52.0078 1325.74 51.8711C1325.15 51.7474 1324.62 51.6009 1324.15 51.4316C1323.68 51.2624 1323.28 51.0573 1322.95 50.8164C1322.62 50.5755 1322.37 50.2923 1322.19 49.9668C1322.02 49.6413 1321.93 49.2604 1321.93 48.8242C1321.93 48.4076 1322.02 48.0137 1322.2 47.6426C1322.39 47.2715 1322.66 46.9427 1322.99 46.6562C1323.34 46.3698 1323.75 46.1452 1324.23 45.9824C1324.72 45.8197 1325.25 45.7383 1325.85 45.7383C1326.69 45.7383 1327.41 45.888 1328.01 46.1875C1328.61 46.487 1329.07 46.8874 1329.39 47.3887C1329.71 47.8835 1329.87 48.4336 1329.87 49.0391H1328.06C1328.06 48.7461 1327.97 48.4629 1327.8 48.1895C1327.63 47.9095 1327.38 47.6784 1327.05 47.4961C1326.72 47.3138 1326.32 47.2227 1325.85 47.2227C1325.34 47.2227 1324.94 47.3008 1324.62 47.457C1324.32 47.6068 1324.09 47.7988 1323.95 48.0332C1323.81 48.2676 1323.75 48.515 1323.75 48.7754C1323.75 48.9707 1323.78 49.1465 1323.84 49.3027C1323.92 49.4525 1324.04 49.5924 1324.21 49.7227C1324.39 49.8464 1324.64 49.9635 1324.96 50.0742C1325.28 50.1849 1325.68 50.2956 1326.18 50.4062C1327.04 50.6016 1327.76 50.8359 1328.32 51.1094C1328.88 51.3828 1329.29 51.7181 1329.57 52.1152C1329.84 52.5124 1329.98 52.9941 1329.98 53.5605C1329.98 54.0228 1329.88 54.446 1329.68 54.8301C1329.49 55.2142 1329.22 55.5462 1328.85 55.8262C1328.5 56.0996 1328.07 56.3145 1327.56 56.4707C1327.07 56.6204 1326.51 56.6953 1325.89 56.6953C1324.96 56.6953 1324.18 56.5293 1323.53 56.1973C1322.89 55.8652 1322.4 55.4355 1322.07 54.9082C1321.73 54.3809 1321.57 53.8242 1321.57 53.2383H1323.38C1323.41 53.7331 1323.55 54.127 1323.81 54.4199C1324.07 54.7064 1324.39 54.9115 1324.77 55.0352C1325.15 55.1523 1325.52 55.2109 1325.89 55.2109C1326.39 55.2109 1326.8 55.1458 1327.13 55.0156C1327.47 54.8854 1327.73 54.7064 1327.91 54.4785C1328.08 54.2507 1328.17 53.9902 1328.17 53.6973Z"
        fill="#C6C6C6" />
    <mask id="mask0_2_2326" style="mask-type:alpha" maskUnits="userSpaceOnUse" x="1334" y="38"
        width="24" height="24">
        <rect x="1334" y="38" width="24" height="24" fill="#D9D9D9" />
    </mask>
    <g mask="url(#mask0_2_2326)">
        <path
            d="M1346 53.375L1340 47.375L1341.4 45.975L1346 50.575L1350.6 45.975L1352 47.375L1346 53.375Z"
            fill="#C6C6C6" />
    </g>
    <path
        d="M1606.35 54.0566V56H1599.21V54.0566H1606.35ZM1599.9 41.7812V56H1597.45V41.7812H1599.9ZM1607.56 50.834V50.6094C1607.56 49.8477 1607.67 49.1413 1607.89 48.4902C1608.12 47.8327 1608.43 47.263 1608.85 46.7812C1609.27 46.293 1609.79 45.9154 1610.39 45.6484C1611.01 45.375 1611.7 45.2383 1612.46 45.2383C1613.24 45.2383 1613.93 45.375 1614.54 45.6484C1615.15 45.9154 1615.66 46.293 1616.09 46.7812C1616.51 47.263 1616.83 47.8327 1617.05 48.4902C1617.28 49.1413 1617.39 49.8477 1617.39 50.6094V50.834C1617.39 51.5957 1617.28 52.3021 1617.05 52.9531C1616.83 53.6042 1616.51 54.1738 1616.09 54.6621C1615.66 55.1439 1615.15 55.5215 1614.54 55.7949C1613.94 56.0618 1613.25 56.1953 1612.48 56.1953C1611.71 56.1953 1611.02 56.0618 1610.4 55.7949C1609.8 55.5215 1609.28 55.1439 1608.86 54.6621C1608.44 54.1738 1608.12 53.6042 1607.89 52.9531C1607.67 52.3021 1607.56 51.5957 1607.56 50.834ZM1609.92 50.6094V50.834C1609.92 51.3092 1609.96 51.7585 1610.06 52.1816C1610.16 52.6048 1610.31 52.9759 1610.52 53.2949C1610.73 53.6139 1611 53.8646 1611.32 54.0469C1611.65 54.2292 1612.04 54.3203 1612.48 54.3203C1612.92 54.3203 1613.3 54.2292 1613.62 54.0469C1613.94 53.8646 1614.21 53.6139 1614.42 53.2949C1614.63 52.9759 1614.78 52.6048 1614.88 52.1816C1614.98 51.7585 1615.03 51.3092 1615.03 50.834V50.6094C1615.03 50.1406 1614.98 49.6979 1614.88 49.2812C1614.78 48.8581 1614.62 48.4837 1614.41 48.1582C1614.2 47.8327 1613.93 47.5788 1613.61 47.3965C1613.29 47.2077 1612.91 47.1133 1612.46 47.1133C1612.02 47.1133 1611.64 47.2077 1611.31 47.3965C1610.99 47.5788 1610.73 47.8327 1610.52 48.1582C1610.31 48.4837 1610.16 48.8581 1610.06 49.2812C1609.96 49.6979 1609.92 50.1406 1609.92 50.6094ZM1626.13 45.4336H1628.27V55.707C1628.27 56.6576 1628.06 57.4648 1627.66 58.1289C1627.26 58.793 1626.69 59.2975 1625.97 59.6426C1625.25 59.9941 1624.41 60.1699 1623.46 60.1699C1623.06 60.1699 1622.61 60.1113 1622.11 59.9941C1621.62 59.877 1621.15 59.6882 1620.69 59.4277C1620.23 59.1738 1619.85 58.8385 1619.54 58.4219L1620.65 57.0352C1621.03 57.4844 1621.44 57.8132 1621.9 58.0215C1622.35 58.2298 1622.83 58.334 1623.33 58.334C1623.87 58.334 1624.33 58.2331 1624.71 58.0312C1625.1 57.8359 1625.39 57.5462 1625.6 57.1621C1625.81 56.778 1625.91 56.3092 1625.91 55.7559V47.8262L1626.13 45.4336ZM1618.95 50.834V50.6289C1618.95 49.8281 1619.05 49.099 1619.24 48.4414C1619.44 47.7773 1619.72 47.2077 1620.08 46.7324C1620.45 46.2507 1620.89 45.8828 1621.41 45.6289C1621.93 45.3685 1622.52 45.2383 1623.18 45.2383C1623.86 45.2383 1624.44 45.362 1624.93 45.6094C1625.41 45.8568 1625.82 46.2116 1626.15 46.6738C1626.47 47.1296 1626.73 47.6764 1626.91 48.3145C1627.1 48.946 1627.24 49.6491 1627.33 50.4238V51.0781C1627.24 51.8333 1627.1 52.5234 1626.9 53.1484C1626.7 53.7734 1626.43 54.3138 1626.1 54.7695C1625.77 55.2253 1625.36 55.5768 1624.87 55.8242C1624.39 56.0716 1623.82 56.1953 1623.16 56.1953C1622.51 56.1953 1621.93 56.0618 1621.41 55.7949C1620.9 55.528 1620.45 55.1536 1620.08 54.6719C1619.72 54.1901 1619.44 53.6237 1619.24 52.9727C1619.05 52.3151 1618.95 51.6022 1618.95 50.834ZM1621.3 50.6289V50.834C1621.3 51.3158 1621.35 51.765 1621.44 52.1816C1621.54 52.5983 1621.68 52.9661 1621.88 53.2852C1622.08 53.5977 1622.33 53.8451 1622.64 54.0273C1622.95 54.2031 1623.32 54.291 1623.74 54.291C1624.3 54.291 1624.75 54.1738 1625.1 53.9395C1625.46 53.7051 1625.73 53.3893 1625.92 52.9922C1626.12 52.5885 1626.25 52.1393 1626.33 51.6445V49.877C1626.29 49.4928 1626.21 49.1348 1626.09 48.8027C1625.97 48.4707 1625.81 48.181 1625.61 47.9336C1625.41 47.6797 1625.15 47.4844 1624.85 47.3477C1624.54 47.2044 1624.18 47.1328 1623.76 47.1328C1623.34 47.1328 1622.97 47.224 1622.66 47.4062C1622.35 47.5885 1622.09 47.8392 1621.89 48.1582C1621.69 48.4772 1621.55 48.8483 1621.45 49.2715C1621.35 49.6947 1621.3 50.1471 1621.3 50.6289ZM1633.23 45.4336V56H1630.86V45.4336H1633.23ZM1630.71 42.6602C1630.71 42.3021 1630.82 42.0059 1631.06 41.7715C1631.3 41.5306 1631.63 41.4102 1632.05 41.4102C1632.47 41.4102 1632.8 41.5306 1633.04 41.7715C1633.28 42.0059 1633.4 42.3021 1633.4 42.6602C1633.4 43.0117 1633.28 43.3047 1633.04 43.5391C1632.8 43.7734 1632.47 43.8906 1632.05 43.8906C1631.63 43.8906 1631.3 43.7734 1631.06 43.5391C1630.82 43.3047 1630.71 43.0117 1630.71 42.6602ZM1638.14 47.6895V56H1635.79V45.4336H1638L1638.14 47.6895ZM1637.72 50.3262L1636.96 50.3164C1636.96 49.5677 1637.07 48.8809 1637.27 48.2559C1637.48 47.6309 1637.76 47.0938 1638.13 46.6445C1638.5 46.1953 1638.94 45.8503 1639.46 45.6094C1639.97 45.362 1640.54 45.2383 1641.18 45.2383C1641.68 45.2383 1642.14 45.3099 1642.55 45.4531C1642.97 45.5898 1643.32 45.8145 1643.62 46.127C1643.92 46.4395 1644.14 46.8464 1644.3 47.3477C1644.46 47.8424 1644.54 48.4512 1644.54 49.1738V56H1642.17V49.1641C1642.17 48.6562 1642.1 48.2559 1641.95 47.9629C1641.8 47.6634 1641.59 47.4518 1641.31 47.3281C1641.04 47.1979 1640.7 47.1328 1640.29 47.1328C1639.88 47.1328 1639.52 47.2174 1639.2 47.3867C1638.88 47.556 1638.61 47.7871 1638.39 48.0801C1638.18 48.373 1638.01 48.7116 1637.89 49.0957C1637.78 49.4798 1637.72 49.89 1637.72 50.3262Z"
        fill="white" />
    <rect x="1683" y="21" width="161" height="58" rx="16" fill="url(#paint1_linear_2_2326)" />
    <path
        d="M1738.43 52.8379C1738.43 52.5449 1738.38 52.2845 1738.29 52.0566C1738.2 51.8288 1738.05 51.6204 1737.83 51.4316C1737.61 51.2428 1737.3 51.0605 1736.89 50.8848C1736.5 50.7025 1735.99 50.5169 1735.37 50.3281C1734.69 50.1198 1734.07 49.8887 1733.49 49.6348C1732.93 49.3743 1732.43 49.0749 1732.01 48.7363C1731.59 48.3913 1731.26 47.9974 1731.02 47.5547C1730.79 47.1055 1730.67 46.5879 1730.67 46.002C1730.67 45.4225 1730.79 44.8952 1731.03 44.4199C1731.28 43.9447 1731.63 43.5345 1732.08 43.1895C1732.53 42.8379 1733.07 42.5677 1733.69 42.3789C1734.31 42.1836 1734.99 42.0859 1735.74 42.0859C1736.79 42.0859 1737.7 42.2812 1738.46 42.6719C1739.23 43.0625 1739.82 43.5866 1740.23 44.2441C1740.65 44.9017 1740.86 45.6276 1740.86 46.4219H1738.43C1738.43 45.9531 1738.32 45.5397 1738.12 45.1816C1737.93 44.8171 1737.63 44.5306 1737.22 44.3223C1736.83 44.1139 1736.32 44.0098 1735.71 44.0098C1735.13 44.0098 1734.65 44.0977 1734.27 44.2734C1733.88 44.4492 1733.6 44.6868 1733.41 44.9863C1733.22 45.2858 1733.12 45.6243 1733.12 46.002C1733.12 46.2689 1733.18 46.513 1733.31 46.7344C1733.43 46.9492 1733.62 47.151 1733.88 47.3398C1734.13 47.5221 1734.45 47.6947 1734.83 47.8574C1735.22 48.0202 1735.67 48.1764 1736.19 48.3262C1736.98 48.5605 1737.66 48.821 1738.25 49.1074C1738.84 49.3874 1739.32 49.7064 1739.71 50.0645C1740.11 50.4225 1740.4 50.8294 1740.59 51.2852C1740.79 51.7344 1740.89 52.2454 1740.89 52.8184C1740.89 53.4173 1740.77 53.9577 1740.53 54.4395C1740.28 54.9147 1739.94 55.3216 1739.49 55.6602C1739.05 55.9922 1738.51 56.2493 1737.89 56.4316C1737.27 56.6074 1736.58 56.6953 1735.82 56.6953C1735.13 56.6953 1734.46 56.6042 1733.8 56.4219C1733.14 56.2396 1732.54 55.9629 1732 55.5918C1731.46 55.2142 1731.03 54.7454 1730.71 54.1855C1730.39 53.6191 1730.23 52.9583 1730.23 52.2031H1732.68C1732.68 52.6654 1732.76 53.0592 1732.92 53.3848C1733.08 53.7103 1733.31 53.9772 1733.59 54.1855C1733.88 54.3874 1734.21 54.5371 1734.59 54.6348C1734.97 54.7324 1735.38 54.7812 1735.82 54.7812C1736.39 54.7812 1736.87 54.6999 1737.25 54.5371C1737.64 54.3743 1737.94 54.1465 1738.13 53.8535C1738.33 53.5605 1738.43 53.222 1738.43 52.8379ZM1745.34 45.9336V56.5H1742.98V45.9336H1745.34ZM1742.82 43.1602C1742.82 42.8021 1742.94 42.5059 1743.17 42.2715C1743.41 42.0306 1743.74 41.9102 1744.17 41.9102C1744.58 41.9102 1744.91 42.0306 1745.15 42.2715C1745.4 42.5059 1745.52 42.8021 1745.52 43.1602C1745.52 43.5117 1745.4 43.8047 1745.15 44.0391C1744.91 44.2734 1744.58 44.3906 1744.17 44.3906C1743.74 44.3906 1743.41 44.2734 1743.17 44.0391C1742.94 43.8047 1742.82 43.5117 1742.82 43.1602ZM1754.69 45.9336H1756.82V56.207C1756.82 57.1576 1756.62 57.9648 1756.22 58.6289C1755.82 59.293 1755.25 59.7975 1754.53 60.1426C1753.81 60.4941 1752.97 60.6699 1752.02 60.6699C1751.62 60.6699 1751.17 60.6113 1750.67 60.4941C1750.18 60.377 1749.71 60.1882 1749.25 59.9277C1748.79 59.6738 1748.41 59.3385 1748.1 58.9219L1749.21 57.5352C1749.58 57.9844 1750 58.3132 1750.46 58.5215C1750.91 58.7298 1751.39 58.834 1751.89 58.834C1752.43 58.834 1752.89 58.7331 1753.27 58.5312C1753.65 58.3359 1753.95 58.0462 1754.16 57.6621C1754.37 57.278 1754.47 56.8092 1754.47 56.2559V48.3262L1754.69 45.9336ZM1747.51 51.334V51.1289C1747.51 50.3281 1747.61 49.599 1747.8 48.9414C1748 48.2773 1748.28 47.7077 1748.64 47.2324C1749.01 46.7507 1749.45 46.3828 1749.97 46.1289C1750.49 45.8685 1751.08 45.7383 1751.74 45.7383C1752.42 45.7383 1753 45.862 1753.48 46.1094C1753.97 46.3568 1754.38 46.7116 1754.71 47.1738C1755.03 47.6296 1755.28 48.1764 1755.47 48.8145C1755.66 49.446 1755.8 50.1491 1755.89 50.9238V51.5781C1755.8 52.3333 1755.66 53.0234 1755.46 53.6484C1755.26 54.2734 1754.99 54.8138 1754.66 55.2695C1754.32 55.7253 1753.91 56.0768 1753.43 56.3242C1752.94 56.5716 1752.37 56.6953 1751.72 56.6953C1751.07 56.6953 1750.49 56.5618 1749.97 56.2949C1749.45 56.028 1749.01 55.6536 1748.64 55.1719C1748.28 54.6901 1748 54.1237 1747.8 53.4727C1747.61 52.8151 1747.51 52.1022 1747.51 51.334ZM1749.86 51.1289V51.334C1749.86 51.8158 1749.91 52.265 1750 52.6816C1750.1 53.0983 1750.24 53.4661 1750.44 53.7852C1750.64 54.0977 1750.89 54.3451 1751.2 54.5273C1751.51 54.7031 1751.88 54.791 1752.3 54.791C1752.86 54.791 1753.31 54.6738 1753.66 54.4395C1754.02 54.2051 1754.29 53.8893 1754.48 53.4922C1754.68 53.0885 1754.81 52.6393 1754.89 52.1445V50.377C1754.85 49.9928 1754.77 49.6348 1754.65 49.3027C1754.53 48.9707 1754.37 48.681 1754.17 48.4336C1753.97 48.1797 1753.71 47.9844 1753.41 47.8477C1753.1 47.7044 1752.74 47.6328 1752.32 47.6328C1751.9 47.6328 1751.53 47.724 1751.22 47.9062C1750.91 48.0885 1750.65 48.3392 1750.45 48.6582C1750.25 48.9772 1750.11 49.3483 1750.01 49.7715C1749.91 50.1947 1749.86 50.6471 1749.86 51.1289ZM1761.6 48.1895V56.5H1759.25V45.9336H1761.46L1761.6 48.1895ZM1761.18 50.8262L1760.42 50.8164C1760.42 50.0677 1760.53 49.3809 1760.73 48.7559C1760.94 48.1309 1761.23 47.5938 1761.59 47.1445C1761.96 46.6953 1762.4 46.3503 1762.92 46.1094C1763.43 45.862 1764.01 45.7383 1764.64 45.7383C1765.14 45.7383 1765.6 45.8099 1766.01 45.9531C1766.43 46.0898 1766.79 46.3145 1767.08 46.627C1767.38 46.9395 1767.61 47.3464 1767.76 47.8477C1767.92 48.3424 1768 48.9512 1768 49.6738V56.5H1765.63V49.6641C1765.63 49.1562 1765.56 48.7559 1765.41 48.4629C1765.26 48.1634 1765.05 47.9518 1764.77 47.8281C1764.5 47.6979 1764.16 47.6328 1763.75 47.6328C1763.34 47.6328 1762.98 47.7174 1762.66 47.8867C1762.35 48.056 1762.07 48.2871 1761.85 48.5801C1761.64 48.873 1761.47 49.2116 1761.36 49.5957C1761.24 49.9798 1761.18 50.39 1761.18 50.8262ZM1781.74 54.0098V45.9336H1784.1V56.5H1781.87L1781.74 54.0098ZM1782.07 51.8125L1782.86 51.793C1782.86 52.5026 1782.78 53.1569 1782.62 53.7559C1782.47 54.3483 1782.23 54.8659 1781.9 55.3086C1781.58 55.7448 1781.16 56.0866 1780.65 56.334C1780.14 56.5749 1779.54 56.6953 1778.83 56.6953C1778.31 56.6953 1777.84 56.6204 1777.41 56.4707C1776.98 56.321 1776.61 56.0898 1776.3 55.7773C1775.99 55.4648 1775.75 55.0579 1775.58 54.5566C1775.41 54.0553 1775.33 53.4564 1775.33 52.7598V45.9336H1777.68V52.7793C1777.68 53.1634 1777.73 53.4857 1777.82 53.7461C1777.91 54 1778.04 54.2051 1778.19 54.3613C1778.35 54.5176 1778.53 54.6283 1778.74 54.6934C1778.95 54.7585 1779.17 54.791 1779.4 54.791C1780.07 54.791 1780.6 54.6608 1780.98 54.4004C1781.38 54.1335 1781.65 53.7754 1781.81 53.3262C1781.98 52.877 1782.07 52.3724 1782.07 51.8125ZM1788.88 47.9648V60.5625H1786.52V45.9336H1788.69L1788.88 47.9648ZM1795.76 51.1191V51.3242C1795.76 52.0924 1795.67 52.8053 1795.49 53.4629C1795.31 54.1139 1795.05 54.6836 1794.7 55.1719C1794.35 55.6536 1793.92 56.028 1793.42 56.2949C1792.91 56.5618 1792.32 56.6953 1791.66 56.6953C1791 56.6953 1790.42 56.5749 1789.93 56.334C1789.44 56.0866 1789.03 55.7383 1788.69 55.2891C1788.35 54.8398 1788.08 54.3125 1787.87 53.707C1787.67 53.0951 1787.52 52.4245 1787.44 51.6953V50.9043C1787.52 50.1296 1787.67 49.4264 1787.87 48.7949C1788.08 48.1634 1788.35 47.6198 1788.69 47.1641C1789.03 46.7083 1789.44 46.3568 1789.93 46.1094C1790.42 45.862 1790.99 45.7383 1791.64 45.7383C1792.3 45.7383 1792.89 45.8685 1793.41 46.1289C1793.92 46.3828 1794.35 46.7474 1794.71 47.2227C1795.06 47.6914 1795.32 48.2578 1795.5 48.9219C1795.67 49.5794 1795.76 50.3118 1795.76 51.1191ZM1793.41 51.3242V51.1191C1793.41 50.6309 1793.36 50.1784 1793.27 49.7617C1793.18 49.3385 1793.04 48.9674 1792.84 48.6484C1792.64 48.3294 1792.39 48.082 1792.09 47.9062C1791.79 47.724 1791.43 47.6328 1791 47.6328C1790.59 47.6328 1790.23 47.7044 1789.93 47.8477C1789.63 47.9844 1789.38 48.1764 1789.18 48.4238C1788.98 48.6712 1788.82 48.9609 1788.71 49.293C1788.6 49.6185 1788.52 49.9733 1788.47 50.3574V52.252C1788.55 52.7207 1788.69 53.1504 1788.88 53.541C1789.06 53.9316 1789.33 54.2441 1789.68 54.4785C1790.03 54.7064 1790.48 54.8203 1791.02 54.8203C1791.45 54.8203 1791.81 54.7292 1792.11 54.5469C1792.41 54.3646 1792.65 54.1139 1792.84 53.7949C1793.04 53.4694 1793.18 53.0951 1793.27 52.6719C1793.36 52.2487 1793.41 51.7995 1793.41 51.3242Z"
        fill="white" />
    <path d="M550 98H627.5" stroke="#7426F2" stroke-width="4" />
    <path
        d="M94.16 36.72H98.984V56.952C98.984 57.648 99.152 58.188 99.488 58.572C99.824 58.956 100.304 59.148 100.928 59.148C101.216 59.148 101.528 59.1 101.864 59.004C102.224 58.908 102.56 58.788 102.872 58.644L103.52 62.316C102.872 62.628 102.116 62.868 101.252 63.036C100.388 63.204 99.608 63.288 98.912 63.288C97.4 63.288 96.224 62.892 95.384 62.1C94.568 61.284 94.16 60.132 94.16 58.644V36.72ZM116.681 63.18C114.809 63.18 113.105 62.82 111.569 62.1C110.057 61.356 108.749 60.384 107.645 59.184C106.565 57.96 105.725 56.568 105.125 55.008C104.525 53.448 104.225 51.852 104.225 50.22C104.225 48.516 104.537 46.884 105.161 45.324C105.809 43.764 106.685 42.384 107.789 41.184C108.917 39.984 110.249 39.036 111.785 38.34C113.321 37.62 114.989 37.26 116.789 37.26C118.637 37.26 120.317 37.644 121.829 38.412C123.365 39.156 124.673 40.14 125.753 41.364C126.833 42.588 127.673 43.98 128.273 45.54C128.873 47.1 129.173 48.684 129.173 50.292C129.173 51.996 128.861 53.628 128.237 55.188C127.613 56.724 126.749 58.092 125.645 59.292C124.541 60.468 123.221 61.416 121.685 62.136C120.149 62.832 118.481 63.18 116.681 63.18ZM109.265 50.22C109.265 51.324 109.433 52.392 109.769 53.424C110.105 54.456 110.585 55.368 111.209 56.16C111.857 56.952 112.637 57.588 113.549 58.068C114.485 58.548 115.541 58.788 116.717 58.788C117.917 58.788 118.973 58.548 119.885 58.068C120.821 57.564 121.601 56.904 122.225 56.088C122.873 55.272 123.353 54.36 123.665 53.352C124.001 52.32 124.169 51.276 124.169 50.22C124.169 49.116 123.989 48.048 123.629 47.016C123.293 45.984 122.801 45.072 122.153 44.28C121.529 43.488 120.749 42.864 119.813 42.408C118.901 41.928 117.869 41.688 116.717 41.688C115.517 41.688 114.449 41.94 113.513 42.444C112.577 42.924 111.797 43.572 111.173 44.388C110.549 45.18 110.069 46.092 109.733 47.124C109.421 48.132 109.265 49.164 109.265 50.22ZM150.732 60.12C148.692 62.16 146.316 63.18 143.604 63.18C141.924 63.18 140.34 62.844 138.852 62.172C137.388 61.5 136.104 60.576 135 59.4C133.92 58.224 133.056 56.844 132.408 55.26C131.784 53.652 131.472 51.924 131.472 50.076C131.472 48.324 131.784 46.68 132.408 45.144C133.056 43.584 133.932 42.228 135.036 41.076C136.164 39.9 137.484 38.976 138.996 38.304C140.508 37.608 142.152 37.26 143.928 37.26C146.328 37.26 148.38 37.764 150.084 38.772C151.812 39.78 153.108 41.136 153.972 42.84L150.264 45.576C149.616 44.304 148.704 43.332 147.528 42.66C146.376 41.988 145.116 41.652 143.748 41.652C142.668 41.652 141.672 41.88 140.76 42.336C139.872 42.792 139.104 43.416 138.456 44.208C137.832 45 137.34 45.912 136.98 46.944C136.644 47.976 136.476 49.068 136.476 50.22C136.476 51.42 136.668 52.548 137.052 53.604C137.436 54.636 137.964 55.536 138.636 56.304C139.308 57.072 140.1 57.684 141.012 58.14C141.948 58.572 142.956 58.788 144.036 58.788C146.508 58.788 148.74 57.624 150.732 55.296V53.496H145.584V49.86H154.836V63H150.732V60.12ZM169.978 63.18C168.106 63.18 166.402 62.82 164.866 62.1C163.354 61.356 162.046 60.384 160.942 59.184C159.862 57.96 159.022 56.568 158.422 55.008C157.822 53.448 157.522 51.852 157.522 50.22C157.522 48.516 157.834 46.884 158.458 45.324C159.106 43.764 159.982 42.384 161.086 41.184C162.214 39.984 163.546 39.036 165.082 38.34C166.618 37.62 168.286 37.26 170.086 37.26C171.934 37.26 173.614 37.644 175.126 38.412C176.662 39.156 177.97 40.14 179.05 41.364C180.13 42.588 180.97 43.98 181.57 45.54C182.17 47.1 182.47 48.684 182.47 50.292C182.47 51.996 182.158 53.628 181.534 55.188C180.91 56.724 180.046 58.092 178.942 59.292C177.838 60.468 176.518 61.416 174.982 62.136C173.446 62.832 171.778 63.18 169.978 63.18ZM162.562 50.22C162.562 51.324 162.73 52.392 163.066 53.424C163.402 54.456 163.882 55.368 164.506 56.16C165.154 56.952 165.934 57.588 166.846 58.068C167.782 58.548 168.838 58.788 170.014 58.788C171.214 58.788 172.27 58.548 173.182 58.068C174.118 57.564 174.898 56.904 175.522 56.088C176.17 55.272 176.65 54.36 176.962 53.352C177.298 52.32 177.466 51.276 177.466 50.22C177.466 49.116 177.286 48.048 176.926 47.016C176.59 45.984 176.098 45.072 175.45 44.28C174.826 43.488 174.046 42.864 173.11 42.408C172.198 41.928 171.166 41.688 170.014 41.688C168.814 41.688 167.746 41.94 166.81 42.444C165.874 42.924 165.094 43.572 164.47 44.388C163.846 45.18 163.366 46.092 163.03 47.124C162.718 48.132 162.562 49.164 162.562 50.22Z"
        fill="white" />
    <defs>
        <linearGradient id="paint0_linear_2_2326" x1="562" y1="38" x2="616.99" y2="40.6797"
            gradientUnits="userSpaceOnUse">
            <stop stop-color="#7526F2" />
            <stop offset="1" stop-color="#C826F2" />
        </linearGradient>
        <linearGradient id="paint1_linear_2_2326" x1="1683" y1="21" x2="1846.8" y2="30.4371"
            gradientUnits="userSpaceOnUse">
            <stop stop-color="#7526F2" />
            <stop offset="1" stop-color="#C826F2" />
        </linearGradient>
    </defs>
</svg>